<svg xmlns="http://www.w3.org/2000/svg" viewBox="0 0 1400 1000" width="1400" height="1000" font-family="Calibri, Arial, sans-serif">
<rect width="1400" height="1000" fill="#FFFFFF"/>
<text x="700.0" y="40" text-anchor="middle" font-size="22" font-weight="700" fill="#0D47A1">Use Case Diagram — Aplikasi LohParkir</text>
<text x="700.0" y="62" text-anchor="middle" font-size="13" fill="#555555">Sistem Verifikasi Parkir Berbasis QR Code untuk Dishub Kota Medan</text>
<rect x="320" y="90" width="760" height="870" rx="14" fill="#F5F9FF" stroke="#0D47A1" stroke-width="2"/>
<text x="700.0" y="115" text-anchor="middle" font-size="14" font-weight="700" fill="#0D47A1">Sistem LohParkir</text>
<circle cx="120" cy="200" r="14" fill="none" stroke="#0D47A1" stroke-width="2.5"/>
<line x1="120" y1="214" x2="120" y2="260" stroke="#0D47A1" stroke-width="2.5"/>
<line x1="98" y1="230" x2="142" y2="230" stroke="#0D47A1" stroke-width="2.5"/>
<line x1="120" y1="260" x2="102" y2="292" stroke="#0D47A1" stroke-width="2.5"/>
<line x1="120" y1="260" x2="138" y2="292" stroke="#0D47A1" stroke-width="2.5"/>
<text x="120" y="315" text-anchor="middle" font-family="Calibri, Arial, sans-serif" font-size="15" font-weight="700" fill="#0D47A1">Warga (Publik)</text>
<circle cx="120" cy="600" r="14" fill="none" stroke="#2E7D32" stroke-width="2.5"/>
<line x1="120" y1="614" x2="120" y2="660" stroke="#2E7D32" stroke-width="2.5"/>
<line x1="98" y1="630" x2="142" y2="630" stroke="#2E7D32" stroke-width="2.5"/>
<line x1="120" y1="660" x2="102" y2="692" stroke="#2E7D32" stroke-width="2.5"/>
<line x1="120" y1="660" x2="138" y2="692" stroke="#2E7D32" stroke-width="2.5"/>
<text x="120" y="715" text-anchor="middle" font-family="Calibri, Arial, sans-serif" font-size="15" font-weight="700" fill="#2E7D32">Juru Parkir</text>
<circle cx="1280" cy="380" r="14" fill="none" stroke="#E65100" stroke-width="2.5"/>
<line x1="1280" y1="394" x2="1280" y2="440" stroke="#E65100" stroke-width="2.5"/>
<line x1="1258" y1="410" x2="1302" y2="410" stroke="#E65100" stroke-width="2.5"/>
<line x1="1280" y1="440" x2="1262" y2="472" stroke="#E65100" stroke-width="2.5"/>
<line x1="1280" y1="440" x2="1298" y2="472" stroke="#E65100" stroke-width="2.5"/>
<text x="1280" y="495" text-anchor="middle" font-family="Calibri, Arial, sans-serif" font-size="15" font-weight="700" fill="#E65100">Admin Dishub</text>
<circle cx="1280" cy="760" r="14" fill="none" stroke="#555555" stroke-width="2.5"/>
<line x1="1280" y1="774" x2="1280" y2="820" stroke="#555555" stroke-width="2.5"/>
<line x1="1258" y1="790" x2="1302" y2="790" stroke="#555555" stroke-width="2.5"/>
<line x1="1280" y1="820" x2="1262" y2="852" stroke="#555555" stroke-width="2.5"/>
<line x1="1280" y1="820" x2="1298" y2="852" stroke="#555555" stroke-width="2.5"/>
<text x="1280" y="875" text-anchor="middle" font-family="Calibri, Arial, sans-serif" font-size="15" font-weight="700" fill="#555555">Payment Gateway
(QRIS)</text>
<ellipse cx="480" cy="150" rx="88" ry="24" fill="white" stroke="#1565C0" stroke-width="2"/><text x="480" y="155.0" text-anchor="middle" font-family="Calibri, Arial, sans-serif" font-size="12" fill="#1A1A1A">Scan QR Jukir</text>
<ellipse cx="480" cy="215" rx="88" ry="24" fill="white" stroke="#1565C0" stroke-width="2"/><text x="480" y="220.0" text-anchor="middle" font-family="Calibri, Arial, sans-serif" font-size="12" fill="#1A1A1A">Input QR Manual</text>
<ellipse cx="480" cy="280" rx="88" ry="24" fill="white" stroke="#1565C0" stroke-width="2"/><text x="480" y="285.0" text-anchor="middle" font-family="Calibri, Arial, sans-serif" font-size="12" fill="#1A1A1A">Bayar via QRIS</text>
<ellipse cx="480" cy="345" rx="88" ry="24" fill="white" stroke="#1565C0" stroke-width="2"/><text x="480" y="350.0" text-anchor="middle" font-family="Calibri, Arial, sans-serif" font-size="12" fill="#1A1A1A">Terima Karcis Digital</text>
<ellipse cx="700" cy="150" rx="88" ry="24" fill="white" stroke="#1565C0" stroke-width="2"/><text x="700" y="155.0" text-anchor="middle" font-family="Calibri, Arial, sans-serif" font-size="12" fill="#1A1A1A">Beri Rating Jukir</text>
<ellipse cx="700" cy="215" rx="92" ry="28" fill="white" stroke="#1565C0" stroke-width="2"/><text x="700" y="213.0" text-anchor="middle" font-family="Calibri, Arial, sans-serif" font-size="12" fill="#1A1A1A">Lapor Pungli /</text><text x="700" y="227.0" text-anchor="middle" font-family="Calibri, Arial, sans-serif" font-size="12" fill="#1A1A1A">Jukir Liar</text>
<ellipse cx="700" cy="295" rx="92" ry="28" fill="white" stroke="#1565C0" stroke-width="2"/><text x="700" y="293.0" text-anchor="middle" font-family="Calibri, Arial, sans-serif" font-size="12" fill="#1A1A1A">Lihat Riwayat</text><text x="700" y="307.0" text-anchor="middle" font-family="Calibri, Arial, sans-serif" font-size="12" fill="#1A1A1A">& Poin</text>
<ellipse cx="700" cy="365" rx="92" ry="28" fill="white" stroke="#1565C0" stroke-width="2"/><text x="700" y="363.0" text-anchor="middle" font-family="Calibri, Arial, sans-serif" font-size="12" fill="#1A1A1A">Lihat Statistik</text><text x="700" y="377.0" text-anchor="middle" font-family="Calibri, Arial, sans-serif" font-size="12" fill="#1A1A1A">Publik</text>
<ellipse cx="480" cy="410" rx="92" ry="28" fill="white" stroke="#1565C0" stroke-width="2"/><text x="480" y="408.0" text-anchor="middle" font-family="Calibri, Arial, sans-serif" font-size="12" fill="#1A1A1A">Daftar / Login</text><text x="480" y="422.0" text-anchor="middle" font-family="Calibri, Arial, sans-serif" font-size="12" fill="#1A1A1A">(opsional)</text>
<ellipse cx="480" cy="555" rx="95" ry="24" fill="white" stroke="#2E7D32" stroke-width="2"/><text x="480" y="560.0" text-anchor="middle" font-family="Calibri, Arial, sans-serif" font-size="12" fill="#1A1A1A">Login dengan NIP</text>
<ellipse cx="480" cy="615" rx="95" ry="28" fill="white" stroke="#2E7D32" stroke-width="2"/><text x="480" y="613.0" text-anchor="middle" font-family="Calibri, Arial, sans-serif" font-size="12" fill="#1A1A1A">Tampilkan QR</text><text x="480" y="627.0" text-anchor="middle" font-family="Calibri, Arial, sans-serif" font-size="12" fill="#1A1A1A">Motor & Mobil</text>
<ellipse cx="480" cy="685" rx="95" ry="28" fill="white" stroke="#2E7D32" stroke-width="2"/><text x="480" y="683.0" text-anchor="middle" font-family="Calibri, Arial, sans-serif" font-size="12" fill="#1A1A1A">Catat Pembayaran</text><text x="480" y="697.0" text-anchor="middle" font-family="Calibri, Arial, sans-serif" font-size="12" fill="#1A1A1A">Tunai</text>
<ellipse cx="480" cy="755" rx="95" ry="24" fill="white" stroke="#2E7D32" stroke-width="2"/><text x="480" y="760.0" text-anchor="middle" font-family="Calibri, Arial, sans-serif" font-size="12" fill="#1A1A1A">Lihat Tarif Resmi</text>
<ellipse cx="920" cy="200" rx="100" ry="24" fill="white" stroke="#E65100" stroke-width="2"/><text x="920" y="205.0" text-anchor="middle" font-family="Calibri, Arial, sans-serif" font-size="12" fill="#1A1A1A">Login Admin</text>
<ellipse cx="920" cy="270" rx="100" ry="28" fill="white" stroke="#E65100" stroke-width="2"/><text x="920" y="268.0" text-anchor="middle" font-family="Calibri, Arial, sans-serif" font-size="12" fill="#1A1A1A">Kelola Data</text><text x="920" y="282.0" text-anchor="middle" font-family="Calibri, Arial, sans-serif" font-size="12" fill="#1A1A1A">Petugas (CRUD)</text>
<ellipse cx="920" cy="345" rx="100" ry="28" fill="white" stroke="#E65100" stroke-width="2"/><text x="920" y="343.0" text-anchor="middle" font-family="Calibri, Arial, sans-serif" font-size="12" fill="#1A1A1A">Generate QR</text><text x="920" y="357.0" text-anchor="middle" font-family="Calibri, Arial, sans-serif" font-size="12" fill="#1A1A1A">Petugas</text>
<ellipse cx="920" cy="420" rx="100" ry="28" fill="white" stroke="#E65100" stroke-width="2"/><text x="920" y="418.0" text-anchor="middle" font-family="Calibri, Arial, sans-serif" font-size="12" fill="#1A1A1A">Kelola Laporan</text><text x="920" y="432.0" text-anchor="middle" font-family="Calibri, Arial, sans-serif" font-size="12" fill="#1A1A1A">Pelanggaran</text>
<ellipse cx="920" cy="495" rx="100" ry="28" fill="white" stroke="#E65100" stroke-width="2"/><text x="920" y="493.0" text-anchor="middle" font-family="Calibri, Arial, sans-serif" font-size="12" fill="#1A1A1A">Pantau Dashboard</text><text x="920" y="507.0" text-anchor="middle" font-family="Calibri, Arial, sans-serif" font-size="12" fill="#1A1A1A">Statistik</text>
<ellipse cx="920" cy="570" rx="100" ry="28" fill="white" stroke="#E65100" stroke-width="2"/><text x="920" y="568.0" text-anchor="middle" font-family="Calibri, Arial, sans-serif" font-size="12" fill="#1A1A1A">Audit Riwayat</text><text x="920" y="582.0" text-anchor="middle" font-family="Calibri, Arial, sans-serif" font-size="12" fill="#1A1A1A">Pembayaran</text>
<ellipse cx="920" cy="645" rx="100" ry="28" fill="white" stroke="#E65100" stroke-width="2"/><text x="920" y="643.0" text-anchor="middle" font-family="Calibri, Arial, sans-serif" font-size="12" fill="#1A1A1A">Lihat Aktivitas</text><text x="920" y="657.0" text-anchor="middle" font-family="Calibri, Arial, sans-serif" font-size="12" fill="#1A1A1A">Scan Realtime</text>
<ellipse cx="920" cy="720" rx="100" ry="28" fill="white" stroke="#E65100" stroke-width="2"/><text x="920" y="718.0" text-anchor="middle" font-family="Calibri, Arial, sans-serif" font-size="12" fill="#1A1A1A">Kelola Akun</text><text x="920" y="732.0" text-anchor="middle" font-family="Calibri, Arial, sans-serif" font-size="12" fill="#1A1A1A">Super Admin</text>
<ellipse cx="920" cy="825" rx="95" ry="28" fill="white" stroke="#555555" stroke-width="2"/><text x="920" y="823.0" text-anchor="middle" font-family="Calibri, Arial, sans-serif" font-size="12" fill="#1A1A1A">Proses Transaksi</text><text x="920" y="837.0" text-anchor="middle" font-family="Calibri, Arial, sans-serif" font-size="12" fill="#1A1A1A">QRIS</text>
<line x1="155" y1="215" x2="390" y2="150" stroke="#555555" stroke-width="1.4"/>
<line x1="155" y1="215" x2="390" y2="215" stroke="#555555" stroke-width="1.4"/>
<line x1="155" y1="215" x2="390" y2="280" stroke="#555555" stroke-width="1.4"/>
<line x1="155" y1="215" x2="390" y2="345" stroke="#555555" stroke-width="1.4"/>
<line x1="155" y1="215" x2="610" y2="150" stroke="#555555" stroke-width="1.4"/>
<line x1="155" y1="215" x2="610" y2="215" stroke="#555555" stroke-width="1.4"/>
<line x1="155" y1="215" x2="610" y2="295" stroke="#555555" stroke-width="1.4"/>
<line x1="155" y1="215" x2="610" y2="365" stroke="#555555" stroke-width="1.4"/>
<line x1="155" y1="215" x2="390" y2="410" stroke="#555555" stroke-width="1.4"/>
<line x1="155" y1="615" x2="385" y2="555" stroke="#555555" stroke-width="1.4"/>
<line x1="155" y1="615" x2="385" y2="615" stroke="#555555" stroke-width="1.4"/>
<line x1="155" y1="615" x2="385" y2="685" stroke="#555555" stroke-width="1.4"/>
<line x1="155" y1="615" x2="385" y2="755" stroke="#555555" stroke-width="1.4"/>
<line x1="1245" y1="395" x2="1020" y2="200" stroke="#555555" stroke-width="1.4"/>
<line x1="1245" y1="395" x2="1020" y2="270" stroke="#555555" stroke-width="1.4"/>
<line x1="1245" y1="395" x2="1020" y2="345" stroke="#555555" stroke-width="1.4"/>
<line x1="1245" y1="395" x2="1020" y2="420" stroke="#555555" stroke-width="1.4"/>
<line x1="1245" y1="395" x2="1020" y2="495" stroke="#555555" stroke-width="1.4"/>
<line x1="1245" y1="395" x2="1020" y2="570" stroke="#555555" stroke-width="1.4"/>
<line x1="1245" y1="395" x2="1020" y2="645" stroke="#555555" stroke-width="1.4"/>
<line x1="1245" y1="395" x2="1020" y2="720" stroke="#555555" stroke-width="1.4"/>
<line x1="1260" y1="775" x2="1020" y2="825" stroke="#555555" stroke-width="1.4"/>
<line x1="140" y1="215" x2="825" y2="825" stroke="#555555" stroke-width="1.4" stroke-dasharray="6,4"/>
<defs><marker id="arrow" viewBox="0 0 10 10" refX="9" refY="5" markerWidth="6" markerHeight="6" orient="auto"><path d="M0,0 L10,5 L0,10 z" fill="#0D47A1"/></marker></defs>
<line x1="480" y1="174" x2="480" y2="256" stroke="#0D47A1" stroke-width="1.2" stroke-dasharray="5,4" marker-end="url(#arrow)"/><text x="480.0" y="207.0" text-anchor="middle" font-size="10" font-style="italic" fill="#0D47A1">«include»</text>
<line x1="480" y1="304" x2="480" y2="321" stroke="#0D47A1" stroke-width="1.2" stroke-dasharray="5,4" marker-end="url(#arrow)"/><text x="480.0" y="304.5" text-anchor="middle" font-size="10" font-style="italic" fill="#0D47A1">«include»</text>
<line x1="572" y1="345" x2="612" y2="165" stroke="#0D47A1" stroke-width="1.2" stroke-dasharray="5,4" marker-end="url(#arrow)"/><text x="592.0" y="247.0" text-anchor="middle" font-size="10" font-style="italic" fill="#0D47A1">«extend»</text>
<line x1="560" y1="142" x2="612" y2="200" stroke="#0D47A1" stroke-width="1.2" stroke-dasharray="5,4" marker-end="url(#arrow)"/><text x="586.0" y="163.0" text-anchor="middle" font-size="10" font-style="italic" fill="#0D47A1">«extend»</text>
<line x1="920" y1="224" x2="920" y2="246" stroke="#0D47A1" stroke-width="1.2" stroke-dasharray="5,4" marker-end="url(#arrow)"/><text x="920.0" y="227.0" text-anchor="middle" font-size="10" font-style="italic" fill="#0D47A1">«include»</text>
<line x1="920" y1="298" x2="920" y2="321" stroke="#0D47A1" stroke-width="1.2" stroke-dasharray="5,4" marker-end="url(#arrow)"/><text x="920.0" y="301.5" text-anchor="middle" font-size="10" font-style="italic" fill="#0D47A1">«include»</text>
<line x1="572" y1="280" x2="825" y2="825" stroke="#0D47A1" stroke-width="1.2" stroke-dasharray="5,4" marker-end="url(#arrow)"/><text x="698.5" y="544.5" text-anchor="middle" font-size="10" font-style="italic" fill="#0D47A1">«include»</text>
<rect x="30" y="880" width="260" height="100" rx="8" fill="white" stroke="#555555"/>
<text x="40" y="900" font-size="12" font-weight="700" fill="#1A1A1A">Keterangan:</text>
<line x1="40" y1="918" x2="80" y2="918" stroke="#555555" stroke-width="1.4"/>
<text x="88" y="922" font-size="11" fill="#1A1A1A">Asosiasi aktor — use case</text>
<line x1="40" y1="938" x2="80" y2="938" stroke="#0D47A1" stroke-width="1.2" stroke-dasharray="5,4"/>
<text x="88" y="942" font-size="11" fill="#1A1A1A">«include» / «extend»</text>
<text x="40" y="962" font-size="11" fill="#555555">Aktor sekunder: Payment Gateway QRIS</text>
</svg>